<svg id="Layer_5" enable-background="new 0 0 64 64" height="512" viewBox="0 0 64 64" width="512" xmlns="http://www.w3.org/2000/svg" xmlns:xlink="http://www.w3.org/1999/xlink"><linearGradient id="SVGID_1_" gradientUnits="userSpaceOnUse" x1="32" x2="32" y1="59" y2="5"><stop offset="0" stop-color="#9f2fff"/><stop offset="1" stop-color="#0bb1d3"/></linearGradient><path d="m33 17.101c-.646-.133-1.354-.133-2 0v-12.101h-30v54h30v-12.101c.646.133 1.354.133 2 0v12.101h30v-54h-30zm-4 39.899h-26v-50h26v11.002c-1.214.913-2 2.365-2 3.998 0 .932.263 1.801.709 2.549l-6.709 6.099-6.718-6.107c.446-.748.718-1.61.718-2.541 0-2.757-2.243-5-5-5s-5 2.243-5 5 2.243 5 5 5c1.102 0 2.112-.37 2.94-.976l6.573 5.976-6.573 5.976c-.828-.606-1.838-.976-2.94-.976-2.757 0-5 2.243-5 5s2.243 5 5 5 5-2.243 5-5c0-.931-.273-1.793-.718-2.541l6.718-6.107 6.709 6.099c-.446.748-.709 1.617-.709 2.549 0 1.633.786 3.085 2 3.998zm0-19.079-6.513-5.921 6.513-5.921zm-19-12.921c-1.654 0-3-1.346-3-3s1.346-3 3-3 3 1.346 3 3-1.346 3-3 3zm3 17c0 1.654-1.346 3-3 3s-3-1.346-3-3 1.346-3 3-3 3 1.346 3 3zm19 3c-1.654 0-3-1.346-3-3s1.346-3 3-3 3 1.346 3 3-1.346 3-3 3zm-1-7.899v-10.202c.646.133 1.354.133 2 0v10.201c-.323-.066-.658-.1-1-.1s-.677.034-1 .101zm4 .82v-11.629l6.056 6.124zm0-30.921h26v50h-26v-11.002c1.214-.913 2-2.365 2-3.998 0-.932-.263-1.801-.709-2.549l6.173-5.612 8.816 8.914c-.176.381-.28.801-.28 1.247 0 1.654 1.346 3 3 3s3-1.346 3-3-1.346-3-3-3c-.477 0-.923.122-1.324.321l-8.731-8.829 7.115-6.469c.828.607 1.838.977 2.94.977 2.757 0 5-2.243 5-5s-2.243-5-5-5-5 2.243-5 5c0 .931.273 1.794.718 2.541l-7.181 6.528-6.321-6.392c.494-.775.784-1.692.784-2.677 0-1.633-.786-3.085-2-3.998zm19 36c.551 0 1 .448 1 1s-.449 1-1 1-1-.448-1-1 .449-1 1-1zm-3-21c0-1.654 1.346-3 3-3s3 1.346 3 3-1.346 3-3 3-3-1.346-3-3zm-16 0c0 1.654-1.346 3-3 3s-3-1.346-3-3 1.346-3 3-3 3 1.346 3 3zm-28-7h-2v-2h2zm2-2h18v2h-18zm-4 42h22v-6h-22zm2-4h18v2h-18zm52-42h-22v6h22zm-2 4h-18v-2h18zm-30-2h-22v-2h22zm12 40h-2v-2h2zm2-2h18v2h-18zm-4 4h22v2h-22z" fill="url(#SVGID_1_)"/></svg>