<svg height="512pt" viewBox="0 0 512 512" width="512pt" xmlns="http://www.w3.org/2000/svg"><path d="m456.828125 0h-118.472656c-26.007813 0-60.789063 14.40625-79.175781 32.796875l-243.070313 243.066406c-10.390625 10.386719-16.109375 24.238281-16.109375 39.007813 0 14.769531 5.722656 28.621094 16.109375 39.007812l142.007813 142.011719c10.386718 10.386719 24.242187 16.109375 39.007812 16.109375 14.769531 0 28.621094-5.722656 39.011719-16.109375l243.066406-243.070313c18.390625-18.386718 32.796875-53.167968 32.796875-79.175781v-118.480469c-.003906-30.417968-24.753906-55.164062-55.171875-55.164062zm-28.753906 106c-2.789063 2.800781-6.660157 4.398438-10.609375 4.398438-3.949219 0-7.8125-1.601563-10.601563-4.398438-2.800781-2.789062-4.398437-6.652344-4.398437-10.601562 0-3.953126 1.601562-7.820313 4.398437-10.609376 2.78125-2.789062 6.652344-4.390624 10.601563-4.390624 3.949218 0 7.820312 1.601562 10.609375 4.390624 2.789062 2.789063 4.390625 6.660157 4.390625 10.609376 0 3.949218-1.601563 7.8125-4.390625 10.601562zm0 0" fill="#ff4949"/><path d="m428.074219 84.789062c2.789062 2.789063 4.390625 6.660157 4.390625 10.609376 0 3.949218-1.601563 7.8125-4.390625 10.601562-2.789063 2.800781-6.660157 4.398438-10.609375 4.398438-3.949219 0-7.8125-1.601563-10.601563-4.398438l-319.308593 319.324219 70.5625 70.566406c10.386718 10.386719 24.242187 16.105469 39.007812 16.109375 14.769531 0 28.621094-5.722656 39.011719-16.113281l243.066406-243.066407c18.390625-18.390624 32.796875-53.167968 32.796875-79.175781v-118.480469c-.003906-14.988281-6.023438-28.59375-15.757812-38.546874zm0 0" fill="#ff2323"/><g fill="#fef4f5"><path d="m139.308594 331.492188c-5.453125-5.449219-4.089844-13.402344 4.085937-21.585938 9.546875-9.542969 16.476563-7.839844 20-11.359375 4.089844-4.089844.679688-11.136719-1.933593-13.746094-7.5-7.5-23.972657 5.792969-30.675782 12.496094-13.066406 13.066406-21.8125 33.402344-4.886718 50.332031 26.925781 26.925782 58.171874-14.769531 75.214843 2.273438 6.816407 6.816406 3.976563 15.789062-2.84375 22.609375-11.585937 11.585937-23.402343 5.90625-28.0625 10.5625-3.519531 3.523437-1.703125 11.25 1.476563 14.433593 6.589844 6.589844 25.453125 2.726563 40.335937-12.160156 15.679688-15.675781 18.632813-35.449218 2.386719-51.695312-29.425781-29.425782-61.011719 11.933594-75.097656-2.160156zm0 0"/><path d="m298.136719 282.644531-93.394531-49.535156c-4.429688-2.386719-10.222657.226563-14.539063 4.546875-4.203125 4.199219-6.820313 9.996094-4.433594 14.429688l49.535157 93.390624c.339843.566407.683593 1.132813.910156 1.363282 3.636718 3.632812 11.476562.792968 15.449218-3.183594 2.5-2.496094 3.640626-5.226562 2.050782-7.953125l-10.796875-19.425781 26.019531-26.019532 19.425781 10.796876c2.730469 1.585937 5.453125.453124 7.953125-2.046876 3.976563-3.976562 6.703125-11.933593 3.179688-15.453124-.335938-.339844-.792969-.570313-1.359375-.910157zm-63.738281 18.976563-24.996094-44.769532 44.765625 25zm0 0"/><path d="m343.007812 226.410156-27.722656 27.722656-65.554687-65.558593c-3.183594-3.179688-8.292969-.792969-11.929688 2.839843-3.75 3.75-6.023437 8.75-2.84375 11.933594l73.851563 73.851563c3.066406 3.066406 7.839844 1.476562 11.136718-1.820313l36.015626-36.015625c2.953124-2.953125 1.132812-7.726562-2.046876-10.90625-3.292968-3.296875-7.949218-5.003906-10.90625-2.046875zm0 0"/><path d="m413.675781 168.925781c-3.523437-3.523437-8.296875-4.886719-11.25-1.933593l-32.152343 32.152343-22.835938-22.835937 17.269531-17.269532c3.179688-3.179687 1.589844-7.726562-1.023437-10.339843-3.066406-3.066407-7.613282-4.199219-10.566406-1.246094l-17.269532 17.265625-22.722656-22.722656 32.152344-32.148438c2.953125-2.957031 1.589844-7.726562-1.929688-11.25-3.070312-3.066406-7.839844-4.886718-11.023437-1.707031l-40.445313 40.449219c-3.296875 3.292968-4.886718 8.066406-1.816406 11.132812l73.734375 73.734375c3.070313 3.070313 7.839844 1.480469 11.136719-1.816406l40.445312-40.445313c3.179688-3.179687 1.363282-7.953124-1.703125-11.019531zm0 0"/></g><path d="m201.113281 349.902344c6.816407 6.816406 3.976563 15.789062-2.839843 22.609375-11.589844 11.585937-23.40625 5.90625-28.0625 10.5625-3.523438 3.523437-1.703126 11.25 1.476562 14.433593 6.589844 6.589844 25.449219 2.726563 40.332031-12.160156 15.679688-15.675781 18.632813-35.449218 2.386719-51.695312-8.089844-8.089844-16.34375-10.820313-24.351562-10.835938l-32.816407 32.820313c17.148438-4.191407 33.265625-16.34375 43.875-5.734375zm0 0" fill="#d5eded"/><path d="m254.164062 281.851562-19.765624 19.769532-8.292969-14.855469-14.335938 14.335937 23.535157 44.375c.339843.566407.683593 1.132813.910156 1.363282 3.636718 3.632812 11.476562.792968 15.449218-3.183594 2.5-2.496094 3.640626-5.226562 2.050782-7.953125l-10.796875-19.429687 26.019531-26.015626 19.425781 10.792969c2.730469 1.589844 5.453125.457031 7.953125-2.046875 3.976563-3.976562 6.703125-11.929687 3.179688-15.449218-.339844-.339844-.792969-.570313-1.359375-.910157l-44.375-23.539062-14.449219 14.449219zm0 0" fill="#d5eded"/><path d="m308.8125 277.195312c3.066406 3.070313 7.839844 1.480469 11.132812-1.816406l36.015626-36.019531c2.953124-2.949219 1.136718-7.722656-2.042969-10.902344-3.296875-3.296875-7.953125-5.003906-10.910157-2.046875l-27.722656 27.722656-28.273437-28.273437-14.769531 14.769531zm0 0" fill="#d5eded"/><path d="m402.425781 166.992188-32.152343 32.152343-22.835938-22.835937 17.269531-17.269532c3.082031-3.085937 1.679688-7.445312-.792969-10.089843l-36.6875 36.6875 36.570313 36.570312c3.066406 3.070313 7.839844 1.480469 11.136719-1.816406l40.441406-40.445313c3.183594-3.179687 1.363281-7.953124-1.699219-11.019531-3.523437-3.523437-8.296875-4.886719-11.25-1.933593zm0 0" fill="#d5eded"/></svg>